<?xml version="1.0" encoding="utf-8"?>
<!-- Generator: Adobe Illustrator 26.3.1, SVG Export Plug-In . SVG Version: 6.00 Build 0)  -->
<svg version="1.1" id="Layer_1" xmlns="http://www.w3.org/2000/svg" xmlns:xlink="http://www.w3.org/1999/xlink" x="0px" y="0px"
	 viewBox="0 0 2000 1200" style="enable-background:new 0 0 2000 1200;" xml:space="preserve">
<style type="text/css">
	.st0{fill:url(#SVGID_1_);}
	.st1{fill:url(#SVGID_00000121264948626359708990000018390233344365770134_);}
	.st2{fill:url(#SVGID_00000165922871649161269980000010658647973593783981_);}
	.st3{fill:url(#SVGID_00000182492874244845241840000005139793433770677135_);}
	.st4{fill:url(#SVGID_00000109005170845637529180000002673405246282066616_);}
	.st5{fill:url(#SVGID_00000029047985832364980580000017807784722182308511_);}
	.st6{fill:url(#SVGID_00000117652249606558641300000009059513290590710954_);}
	.st7{fill:url(#SVGID_00000044880628459120995340000000661819772119124153_);}
	.st8{fill:url(#SVGID_00000096777390575133522390000011261810301258640555_);}
	.st9{fill:url(#SVGID_00000098905035927957217640000008130759959035199109_);}
	.st10{fill:url(#SVGID_00000149378191149677641390000001724306168515433634_);}
	.st11{fill:url(#SVGID_00000085952057250520236450000015120355454785344917_);}
	.st12{fill:url(#SVGID_00000155848463891782277390000004677970312130162607_);}
	.st13{fill:url(#SVGID_00000109733861417798095570000014079478577577038763_);}
	.st14{fill:url(#SVGID_00000086671467327666256330000014491476482633926843_);}
	.st15{fill:url(#SVGID_00000046315241243744698800000008795965912154579333_);}
	.st16{fill:url(#SVGID_00000085948316246486712190000015261287445122866339_);}
	.st17{fill:url(#SVGID_00000052802656364961250140000011555405023418036662_);}
	.st18{fill:url(#SVGID_00000047767399534273341610000011938743069347861409_);}
	.st19{fill:url(#SVGID_00000101817514768060837770000003150808707110557058_);}
	.st20{fill:url(#SVGID_00000174565919262742056850000001786958288047575200_);}
	.st21{fill:url(#SVGID_00000095340291078934042000000002377727097532351109_);}
	.st22{fill:url(#SVGID_00000080188330588352739650000016068507104567778989_);}
	.st23{fill:url(#SVGID_00000109029457630474455000000007046847421618051728_);}
	.st24{fill:url(#SVGID_00000096058430394741377070000017009036328318775175_);}
	.st25{fill:url(#SVGID_00000063622803848046287560000013921659515440693664_);}
	.st26{fill:url(#SVGID_00000165915402786873135120000006453520306446132157_);}
	.st27{fill:url(#SVGID_00000165222770945664253030000004782264777428988855_);}
	.st28{fill:url(#SVGID_00000163782475202743437180000005685134077321523877_);}
</style>
<g>
	<linearGradient id="SVGID_1_" gradientUnits="userSpaceOnUse" x1="1040.5875" y1="479.8027" x2="1040.5875" y2="421.0436">
		<stop  offset="0" style="stop-color:#4D4D4D"/>
		<stop  offset="1" style="stop-color:#C1272D"/>
	</linearGradient>
	<path class="st0" d="M1039.93,479.8c19.93,0,39.77,0,59.6,0c0-0.55,0.07-0.77-0.01-0.91c-19.47-33.82-48.8-52.8-87.31-57.84
		c-1.15-0.15-3.06,0.72-3.63,1.69c-8.99,15.38-17.89,30.84-26.96,46.61c5.85-1.64,12.01-2.54,18.38-2.54
		C1014.91,466.81,1028.7,471.64,1039.93,479.8z"/>
	
		<linearGradient id="SVGID_00000099650251704116498610000005017664280635272635_" gradientUnits="userSpaceOnUse" x1="959.3904" y1="648.7313" x2="959.3904" y2="589.9736">
		<stop  offset="0" style="stop-color:#4D4D4D"/>
		<stop  offset="1" style="stop-color:#C1272D"/>
	</linearGradient>
	<path style="fill:url(#SVGID_00000099650251704116498610000005017664280635272635_);" d="M960.04,589.97c-19.91,0-39.72,0-59.53,0
		c-0.03,0.55-0.11,0.77-0.04,0.9c19.46,33.82,48.79,52.79,87.29,57.84c1.15,0.15,3.07-0.71,3.64-1.67
		c8.98-15.37,17.86-30.82,26.93-46.59c-5.84,1.64-11.98,2.53-18.33,2.53C985.08,602.98,971.27,598.15,960.04,589.97z"/>
	
		<linearGradient id="SVGID_00000026158691342495069500000015242032583409428901_" gradientUnits="userSpaceOnUse" x1="1044.7947" y1="649.3046" x2="1044.7947" y2="551.9297">
		<stop  offset="0" style="stop-color:#4D4D4D"/>
		<stop  offset="1" style="stop-color:#C1272D"/>
	</linearGradient>
	<path style="fill:url(#SVGID_00000026158691342495069500000015242032583409428901_);" d="M1027.25,597.27
		c-9.97,17.3-19.92,34.57-29.97,52.02c2.27,0,3.55,0.03,4.82,0c33.28-0.82,61-13.79,83.29-38.37c8.91-9.82,8.76-9.99,2.16-21.47
		c-7.1-12.36-14.23-24.71-21.62-37.52C1060.67,572.28,1046.2,588.96,1027.25,597.27z"/>
	
		<linearGradient id="SVGID_00000128443304148875509530000016556203703086992546_" gradientUnits="userSpaceOnUse" x1="919.1635" y1="583.7106" x2="919.1635" y2="475.0127">
		<stop  offset="0" style="stop-color:#4D4D4D"/>
		<stop  offset="1" style="stop-color:#C1272D"/>
	</linearGradient>
	<path style="fill:url(#SVGID_00000128443304148875509530000016556203703086992546_);" d="M932.36,527.21
		c-9.97-17.31-19.96-34.63-30.08-52.2c-19.42,35.29-21.89,70.21-6.67,106.16c0.52,1.24,2.87,2.41,4.38,2.42
		c17.31,0.13,34.63,0.12,52.61,0.11c-12.75-12.38-20.69-29.68-20.69-48.81C931.92,532.3,932.08,529.74,932.36,527.21z"/>
	
		<linearGradient id="SVGID_00000127739859490684836480000000366083059468050060_" gradientUnits="userSpaceOnUse" x1="1080.8295" y1="594.4282" x2="1080.8295" y2="485.8646">
		<stop  offset="0" style="stop-color:#4D4D4D"/>
		<stop  offset="1" style="stop-color:#C1272D"/>
	</linearGradient>
	<path style="fill:url(#SVGID_00000127739859490684836480000000366083059468050060_);" d="M1106.73,493.41
		c-2.01-5.67-4.92-7.93-11.13-7.5c-8.95,0.62-17.97,0.16-26.96,0.16c-6.99,0-13.98,0-21.24,0c12.75,12.38,20.7,29.69,20.7,48.82
		c0,2.6-0.16,5.17-0.45,7.7c9.89,17.17,19.8,34.38,29.86,51.83c1.55-2.61,2.7-4.31,3.62-6.13
		C1116.77,557.49,1118.22,525.89,1106.73,493.41z"/>
	
		<linearGradient id="SVGID_00000007427676183156018200000008983026860208939437_" gradientUnits="userSpaceOnUse" x1="954.8743" y1="517.8813" x2="954.8743" y2="420.4925">
		<stop  offset="0" style="stop-color:#4D4D4D"/>
		<stop  offset="1" style="stop-color:#C1272D"/>
	</linearGradient>
	<path style="fill:url(#SVGID_00000007427676183156018200000008983026860208939437_);" d="M972.7,472.55
		c9.92-17.23,19.85-34.46,29.86-51.84c-2.09-0.1-3.36-0.25-4.62-0.21c-36.65,1.04-66.06,16.32-88.88,44.86
		c-2.46,3.07-2.4,5.25-0.47,8.53c8.61,14.6,17.01,29.31,25.47,43.99C939.32,497.54,953.78,480.86,972.7,472.55z"/>
	
		<linearGradient id="SVGID_00000146467134580258775080000006614216841718731429_" gradientUnits="userSpaceOnUse" x1="1000" y1="665.1064" x2="1000" y2="404.6904">
		<stop  offset="0" style="stop-color:#4D4D4D"/>
		<stop  offset="1" style="stop-color:#C1272D"/>
	</linearGradient>
	<path style="fill:url(#SVGID_00000146467134580258775080000006614216841718731429_);" d="M1000,404.69
		c-71.8,0-130.21,58.41-130.21,130.21c0,71.8,58.41,130.21,130.21,130.21s130.21-58.41,130.21-130.21
		C1130.21,463.1,1071.8,404.69,1000,404.69z M1000,655.92c-66.73,0-121.02-54.29-121.02-121.02c0-66.73,54.29-121.02,121.02-121.02
		s121.02,54.29,121.02,121.02C1121.02,601.63,1066.73,655.92,1000,655.92z"/>
	
		<linearGradient id="SVGID_00000023992346292198847610000015020735306792673961_" gradientUnits="userSpaceOnUse" x1="967.3486" y1="593.7061" x2="967.3486" y2="476.0903">
		<stop  offset="0" style="stop-color:#4D4D4D"/>
		<stop  offset="1" style="stop-color:#C1272D"/>
	</linearGradient>
	<path style="fill:url(#SVGID_00000023992346292198847610000015020735306792673961_);" d="M997.46,476.09h-13.77
		c-1.68,0.59-2.52,2.02-2.47,4.7c0.27,15.48,0.18,30.97,0.21,46.45c0.01,5.2,0,10.41,0,15.61c-1.25-3.94-7.11-20.64-7.64-22.29
		c-3.27-10.26-6.42-20.56-9.36-30.91c-0.93-3.3-2.06-3.13-4.13-1.11c-1.71,1.68-3.63,3.15-5.25,4.9
		c-13.09,14.12-19.1,30.71-17.81,50.03c0.78,11.67,5.08,21.9,11.39,31.5c0.08,0.13,0.17,0.25,0.25,0.36l11.76-11.76
		c-1.82-3.58-3.31-7.31-4.86-11.01c-4.43-10.52-2.24-20.42,0.87-30.56c2.45,7.37,4.93,14.58,7.44,21.78
		c2.66,7.65,4.71,15.51,7.02,23.28c2.64,8.9,5.92,17.67,8.21,26.64h18.07c0.09-23.17,0.05-46.34,0.06-69.5
		c0.01-15.35-0.1-30.71,0.18-46.05C997.64,477.31,997.58,476.64,997.46,476.09z"/>
	
		<linearGradient id="SVGID_00000072978879500117562260000014172562220943280523_" gradientUnits="userSpaceOnUse" x1="1034.2324" y1="593.7061" x2="1034.2324" y2="476.0903">
		<stop  offset="0" style="stop-color:#4D4D4D"/>
		<stop  offset="1" style="stop-color:#C1272D"/>
	</linearGradient>
	<path style="fill:url(#SVGID_00000072978879500117562260000014172562220943280523_);" d="M1022.68,495.14
		c7.74,3.63,21.38,21.57,23.13,23.27h17.13c-0.13-0.38-0.28-0.8-0.46-1.29c-6.69-18.45-19.06-31.54-37.28-38.88
		c-1.44-0.58-19.56-2.15-19.56-2.15c0.04,21.18,0.08,42.36,0.08,63.53c0,18.03-0.03,36.06-0.18,54.08h16.32
		c-0.17-11.76-0.18-23.53-0.07-35.29c0.03-3.31-0.49-6.61,0.06-9.94c0.23-1.43,0.46-2.18,2.06-2.17c5.28,0.06,10.57,0.03,15.85,0.05
		c7.47,0.03,14.95-0.01,22.42,0.13V530.1c-0.07,0-0.14,0-0.21,0c-12.11,0.18-24.22-0.09-36.32,0.1c-3.3,0.05-4-1.06-3.95-4.08
		c0.17-9.47,0.07-18.95,0.12-28.42C1021.82,496.86,1021.35,495.8,1022.68,495.14z"/>
</g>
<g>
	
		<linearGradient id="SVGID_00000147940805877389064420000011182473968197780380_" gradientUnits="userSpaceOnUse" x1="1190.4138" y1="543.158" x2="1190.4138" y2="462.4254">
		<stop  offset="0" style="stop-color:#4D4D4D"/>
		<stop  offset="1" style="stop-color:#C1272D"/>
	</linearGradient>
	<path style="fill:url(#SVGID_00000147940805877389064420000011182473968197780380_);" d="M1172.19,489.18h-0.32
		c0,0.12,0.22,9.8,0.22,20.07v33.91H1157v-80.73h15.3l36.34,53.17h0.33c0-0.12-0.22-10.15-0.22-19.03v-34.14h15.08v80.73h-15.3
		L1172.19,489.18z"/>
	
		<linearGradient id="SVGID_00000092419431192917125710000005388534828822774427_" gradientUnits="userSpaceOnUse" x1="1275.5193" y1="543.158" x2="1275.5193" y2="462.4254">
		<stop  offset="0" style="stop-color:#4D4D4D"/>
		<stop  offset="1" style="stop-color:#C1272D"/>
	</linearGradient>
	<path style="fill:url(#SVGID_00000092419431192917125710000005388534828822774427_);" d="M1248.34,462.43h53.92v14.88h-38.84v16.95
		h29.18v14.99h-29.18v19.03h39.27v14.88h-54.35V462.43z"/>
	
		<linearGradient id="SVGID_00000024716433492741054190000002740902924464179612_" gradientUnits="userSpaceOnUse" x1="1356.3424" y1="544.6562" x2="1356.3424" y2="462.4254">
		<stop  offset="0" style="stop-color:#4D4D4D"/>
		<stop  offset="1" style="stop-color:#C1272D"/>
	</linearGradient>
	<path style="fill:url(#SVGID_00000024716433492741054190000002740902924464179612_);" d="M1388.51,507.98
		c0,23.76-12.37,36.68-32.11,36.68c-19.96,0-32.22-12.92-32.22-36.68v-45.56h15.3v45.09c0,15.11,5.64,22.03,17.03,22.03
		c11.39,0,17.03-6.92,17.03-22.03v-45.09h14.97V507.98z"/>
	
		<linearGradient id="SVGID_00000034798234547792814780000005426118004192045757_" gradientUnits="userSpaceOnUse" x1="1441.828" y1="543.158" x2="1441.828" y2="462.4254">
		<stop  offset="0" style="stop-color:#4D4D4D"/>
		<stop  offset="1" style="stop-color:#C1272D"/>
	</linearGradient>
	<path style="fill:url(#SVGID_00000034798234547792814780000005426118004192045757_);" d="M1438.19,514.79h-4.88h-5.97v28.37h-15.08
		v-80.73h26.9c18.77,0,29.73,10.15,29.73,26.52c0,11.65-5.64,19.49-15.41,22.72l17.9,31.49h-17.9L1438.19,514.79z M1440.25,501.87
		c8.25,0,13.24-3.69,13.24-12.11c0-8.3-4.77-12.69-13.45-12.69h-12.69v24.8H1440.25z"/>
	
		<linearGradient id="SVGID_00000173140843737520454700000008114769269461357717_" gradientUnits="userSpaceOnUse" x1="1527.1525" y1="544.6562" x2="1527.1525" y2="460.8105">
		<stop  offset="0" style="stop-color:#4D4D4D"/>
		<stop  offset="1" style="stop-color:#C1272D"/>
	</linearGradient>
	<path style="fill:url(#SVGID_00000173140843737520454700000008114769269461357717_);" d="M1527.15,460.81
		c22.89,0,39.81,17.07,39.81,41.98c0,24.8-16.92,41.87-39.81,41.87c-22.89,0-39.81-17.07-39.81-41.87
		C1487.34,477.88,1504.26,460.81,1527.15,460.81z M1527.15,529.55c14,0,24.63-10.26,24.63-26.76c0-16.49-10.63-26.87-24.63-26.87
		c-13.99,0-24.63,10.38-24.63,26.87C1502.53,519.17,1513.16,529.55,1527.15,529.55z"/>
	
		<linearGradient id="SVGID_00000034781361674472871260000006149006131996329125_" gradientUnits="userSpaceOnUse" x1="1621.5361" y1="543.158" x2="1621.5361" y2="462.4254">
		<stop  offset="0" style="stop-color:#4D4D4D"/>
		<stop  offset="1" style="stop-color:#C1272D"/>
	</linearGradient>
	<path style="fill:url(#SVGID_00000034781361674472871260000006149006131996329125_);" d="M1603.31,489.18h-0.32
		c0,0.12,0.22,9.8,0.22,20.07v33.91h-15.08v-80.73h15.3l36.34,53.17h0.33c0-0.12-0.22-10.15-0.22-19.03v-34.14h15.08v80.73h-15.3
		L1603.31,489.18z"/>
	
		<linearGradient id="SVGID_00000070798849084077617230000015995427807356141746_" gradientUnits="userSpaceOnUse" x1="1713.2605" y1="543.158" x2="1713.2605" y2="462.4254">
		<stop  offset="0" style="stop-color:#4D4D4D"/>
		<stop  offset="1" style="stop-color:#C1272D"/>
	</linearGradient>
	<path style="fill:url(#SVGID_00000070798849084077617230000015995427807356141746_);" d="M1696.06,527.01l-5.75,16.15h-15.95
		l30.38-80.73h17.03l30.38,80.73h-16.17l-5.75-16.15H1696.06z M1718.63,494.72c-2.6-6.92-5.21-14.07-5.32-14.18h-0.32
		c-0.11,0.11-2.71,7.15-5.32,14.18l-6.4,17.76h23.65L1718.63,494.72z"/>
</g>
<linearGradient id="SVGID_00000103979004361830736400000016075755218570139019_" gradientUnits="userSpaceOnUse" x1="1527.5685" y1="557.4794" x2="1527.5685" y2="552.3596">
	<stop  offset="0" style="stop-color:#4D4D4D"/>
	<stop  offset="1" style="stop-color:#C1272D"/>
</linearGradient>
<polygon style="fill:url(#SVGID_00000103979004361830736400000016075755218570139019_);" points="1527.52,552.36 1525.22,557.48 
	1526.14,557.48 1529.92,552.36 "/>
<linearGradient id="SVGID_00000147924296866483752360000010510288551318226056_" gradientUnits="userSpaceOnUse" x1="1170.4237" y1="611.3019" x2="1170.4237" y2="563.0986">
	<stop  offset="0" style="stop-color:#4D4D4D"/>
	<stop  offset="1" style="stop-color:#C1272D"/>
</linearGradient>
<polygon style="fill:url(#SVGID_00000147924296866483752360000010510288551318226056_);" points="1155.31,611.3 1160.91,611.3 
	1160.91,589.49 1182.33,589.49 1182.33,583.54 1160.91,583.54 1160.91,569.05 1185.54,569.05 1185.54,563.1 1155.31,563.1 "/>
<linearGradient id="SVGID_00000009591306841375683750000009882515502571650478_" gradientUnits="userSpaceOnUse" x1="1227.8102" y1="612.1352" x2="1227.8102" y2="562.2653">
	<stop  offset="0" style="stop-color:#4D4D4D"/>
	<stop  offset="1" style="stop-color:#C1272D"/>
</linearGradient>
<path style="fill:url(#SVGID_00000009591306841375683750000009882515502571650478_);" d="M1243.24,569.1
	c-1.9-2.18-4.2-3.89-6.83-5.07c-2.62-1.17-5.51-1.77-8.58-1.77c-3.1,0-5.99,0.6-8.61,1.77c-2.61,1.18-4.91,2.87-6.82,5.03
	c-1.91,2.16-3.41,4.8-4.47,7.83c-1.05,3.02-1.58,6.44-1.58,10.15c0,3.69,0.53,7.1,1.56,10.15c1.04,3.06,2.53,5.73,4.42,7.93
	c1.9,2.21,4.19,3.95,6.82,5.17c2.63,1.22,5.55,1.84,8.68,1.84s6.05-0.62,8.66-1.84c2.62-1.22,4.9-2.97,6.8-5.19
	c1.89-2.21,3.37-4.89,4.42-7.95c1.04-3.04,1.56-6.44,1.56-10.1c0-3.69-0.53-7.09-1.58-10.11
	C1246.63,573.91,1245.13,571.27,1243.24,569.1z M1243.51,587.05c0,3.08-0.4,5.86-1.18,8.25c-0.78,2.36-1.87,4.37-3.27,5.97
	c-1.38,1.6-3.05,2.83-4.94,3.65c-1.92,0.83-4.04,1.25-6.33,1.25c-2.28,0-4.41-0.42-6.33-1.25c-1.89-0.82-3.55-2.05-4.92-3.65
	c-1.38-1.61-2.48-3.62-3.25-5.98c-0.78-2.39-1.18-5.16-1.18-8.25c0-3.08,0.4-5.83,1.2-8.17c0.79-2.32,1.89-4.28,3.28-5.85
	c1.38-1.56,3.05-2.76,4.95-3.58c1.92-0.82,4.06-1.24,6.37-1.24c2.26,0,4.36,0.41,6.26,1.22c1.87,0.8,3.51,2,4.88,3.55
	c1.38,1.57,2.48,3.54,3.27,5.86C1243.11,581.19,1243.51,583.95,1243.51,587.05z"/>
<linearGradient id="SVGID_00000124878275297936713160000015620855078980966020_" gradientUnits="userSpaceOnUse" x1="1286.116" y1="611.3019" x2="1286.116" y2="563.0986">
	<stop  offset="0" style="stop-color:#4D4D4D"/>
	<stop  offset="1" style="stop-color:#C1272D"/>
</linearGradient>
<polygon style="fill:url(#SVGID_00000124878275297936713160000015620855078980966020_);" points="1268.4,569.05 1283.24,569.05 
	1283.24,611.3 1288.84,611.3 1288.84,569.05 1303.83,569.05 1303.83,563.1 1268.4,563.1 "/>
<linearGradient id="SVGID_00000036211937655577377260000005383917239317583506_" gradientUnits="userSpaceOnUse" x1="1344.462" y1="612.1352" x2="1344.462" y2="562.2653">
	<stop  offset="0" style="stop-color:#4D4D4D"/>
	<stop  offset="1" style="stop-color:#C1272D"/>
</linearGradient>
<path style="fill:url(#SVGID_00000036211937655577377260000005383917239317583506_);" d="M1359.89,569.1
	c-1.9-2.18-4.2-3.89-6.83-5.07c-2.62-1.17-5.51-1.77-8.58-1.77c-3.1,0-6,0.6-8.61,1.77c-2.61,1.18-4.91,2.87-6.82,5.03
	c-1.91,2.16-3.41,4.8-4.47,7.83c-1.05,3.02-1.58,6.44-1.58,10.15c0,3.69,0.53,7.1,1.56,10.15c1.04,3.06,2.53,5.73,4.42,7.93
	c1.9,2.21,4.19,3.95,6.82,5.17c2.63,1.22,5.55,1.84,8.68,1.84s6.05-0.62,8.66-1.84c2.62-1.22,4.9-2.97,6.8-5.19
	c1.89-2.21,3.37-4.89,4.42-7.95c1.04-3.04,1.56-6.44,1.56-10.1c0-3.69-0.53-7.09-1.58-10.11
	C1363.28,573.91,1361.78,571.27,1359.89,569.1z M1360.16,587.05c0,3.08-0.4,5.86-1.18,8.25c-0.78,2.36-1.87,4.37-3.27,5.97
	c-1.38,1.6-3.05,2.83-4.94,3.65c-1.92,0.83-4.04,1.25-6.33,1.25c-2.28,0-4.41-0.42-6.33-1.25c-1.89-0.82-3.55-2.05-4.92-3.65
	c-1.38-1.61-2.48-3.62-3.25-5.98c-0.78-2.39-1.18-5.16-1.18-8.25c0-3.08,0.4-5.83,1.2-8.17c0.79-2.32,1.89-4.28,3.28-5.85
	c1.38-1.56,3.05-2.76,4.95-3.58c1.92-0.82,4.06-1.24,6.37-1.24c2.26,0,4.36,0.41,6.26,1.22c1.87,0.8,3.51,2,4.88,3.55
	c1.38,1.57,2.48,3.54,3.27,5.86C1359.76,581.19,1360.16,583.95,1360.16,587.05z"/>
<linearGradient id="SVGID_00000145057493334754715330000013844989961176248752_" gradientUnits="userSpaceOnUse" x1="1407.3683" y1="612.1352" x2="1407.3683" y2="562.2653">
	<stop  offset="0" style="stop-color:#4D4D4D"/>
	<stop  offset="1" style="stop-color:#C1272D"/>
</linearGradient>
<path style="fill:url(#SVGID_00000145057493334754715330000013844989961176248752_);" d="M1410.89,592.45h11.82v6.44
	c-1.64,2.22-3.64,4-5.95,5.28c-2.42,1.34-5.34,2.02-8.67,2.02c-2.36,0-4.54-0.42-6.49-1.26c-1.92-0.82-3.58-2.05-4.95-3.64
	c-1.38-1.61-2.48-3.62-3.25-5.98c-0.79-2.39-1.18-5.16-1.18-8.25c0-3.11,0.4-5.88,1.18-8.24c0.77-2.33,1.86-4.3,3.24-5.87
	c1.37-1.55,3.02-2.74,4.93-3.52c1.94-0.8,4.11-1.2,6.45-1.2c1.91,0,3.67,0.25,5.25,0.74c1.57,0.49,2.97,1.15,4.14,1.96
	c1.15,0.79,2.08,1.73,2.79,2.77c0.68,1.01,1.12,2.09,1.29,3.22l0.17,1.1h5.93l-0.32-1.58c-0.42-2.13-1.21-4.1-2.34-5.84
	c-1.13-1.74-2.57-3.25-4.28-4.48c-1.7-1.23-3.65-2.18-5.79-2.84c-2.14-0.66-4.47-0.99-6.92-0.99c-3.15,0-6.07,0.59-8.7,1.75
	c-2.63,1.16-4.93,2.85-6.83,5.02c-1.89,2.16-3.38,4.79-4.43,7.83c-1.04,3.02-1.56,6.44-1.56,10.19c0,3.71,0.52,7.14,1.54,10.2
	c1.03,3.08,2.52,5.76,4.43,7.94c1.91,2.19,4.23,3.92,6.9,5.12c2.66,1.2,5.64,1.81,8.84,1.81c1.57,0,3.13-0.13,4.66-0.39
	c1.54-0.27,3.04-0.69,4.45-1.26c1.43-0.57,2.8-1.34,4.08-2.27c0.67-0.49,1.31-1.04,1.92-1.64l1.06,4.72h4.01v-24.81h-17.42V592.45z"
	/>
<linearGradient id="SVGID_00000183224784144065086430000011904489099034836658_" gradientUnits="userSpaceOnUse" x1="1470.6306" y1="611.3019" x2="1470.6306" y2="563.0986">
	<stop  offset="0" style="stop-color:#4D4D4D"/>
	<stop  offset="1" style="stop-color:#C1272D"/>
</linearGradient>
<path style="fill:url(#SVGID_00000183224784144065086430000011904489099034836658_);" d="M1482.15,591.77
	c-0.42-0.77-0.93-1.5-1.5-2.18c-0.13-0.15-0.26-0.3-0.4-0.45c0.73-0.3,1.42-0.66,2.04-1.07c1.24-0.82,2.27-1.83,3.08-3
	c0.8-1.16,1.41-2.49,1.8-3.96c0.38-1.43,0.58-2.98,0.58-4.63c0-2.65-0.44-4.88-1.32-6.63c-0.88-1.76-2.08-3.17-3.58-4.18
	c-1.44-0.97-3.1-1.66-4.93-2.03c-1.76-0.36-3.59-0.55-5.46-0.55h-20.54v48.2h5.6v-20.56h13.76c0.98,0,1.84,0.18,2.54,0.54
	c0.73,0.37,1.39,0.89,1.96,1.53c0.6,0.68,1.13,1.48,1.59,2.4c0.48,0.97,0.93,2.03,1.33,3.14l4.57,12.96h6.09l-6.1-17.06
	C1482.93,593.36,1482.56,592.52,1482.15,591.77z M1457.51,569.05h14.55c3.44,0,6.02,0.6,7.67,1.79c1.52,1.1,2.26,2.94,2.26,5.64
	c0,1.6-0.21,2.94-0.61,4c-0.39,1-0.96,1.79-1.76,2.41c-0.83,0.65-1.93,1.12-3.26,1.42c-1.42,0.31-3.17,0.47-5.19,0.47h-13.65V569.05
	z"/>
<linearGradient id="SVGID_00000136384629363032310220000011087723744849449147_" gradientUnits="userSpaceOnUse" x1="1528.1469" y1="560.102" x2="1528.1469" y2="549.7371">
	<stop  offset="0" style="stop-color:#4D4D4D"/>
	<stop  offset="1" style="stop-color:#C1272D"/>
</linearGradient>
<polygon style="fill:url(#SVGID_00000136384629363032310220000011087723744849449147_);" points="1534.99,549.74 1525.96,549.74 
	1521.3,560.1 1527.34,560.1 "/>
<linearGradient id="SVGID_00000042727010834056759060000016801598080379358646_" gradientUnits="userSpaceOnUse" x1="1527.8618" y1="611.3019" x2="1527.8618" y2="563.0571">
	<stop  offset="0" style="stop-color:#4D4D4D"/>
	<stop  offset="1" style="stop-color:#C1272D"/>
</linearGradient>
<path style="fill:url(#SVGID_00000042727010834056759060000016801598080379358646_);" d="M1524.29,563.06l-0.3,0.84
	c-1.41,3.91-2.8,7.75-4.17,11.53l-8.18,22.52c-1.37,3.78-2.76,7.64-4.17,11.58l-0.64,1.78h5.98l2.84-8.21
	c0.78-2.25,1.51-4.4,2.18-6.45h19.38l5.25,14.65h6.44l-18.51-48.24H1524.29z M1519.59,591.4l7.65-20.55l8.06,20.55H1519.59z"/>
<linearGradient id="SVGID_00000121982506446561116650000016618177138730182294_" gradientUnits="userSpaceOnUse" x1="1583.7562" y1="611.3019" x2="1583.7562" y2="563.0986">
	<stop  offset="0" style="stop-color:#4D4D4D"/>
	<stop  offset="1" style="stop-color:#C1272D"/>
</linearGradient>
<polygon style="fill:url(#SVGID_00000121982506446561116650000016618177138730182294_);" points="1568.64,611.3 1574.24,611.3 
	1574.24,589.49 1595.66,589.49 1595.66,583.54 1574.24,583.54 1574.24,569.05 1598.87,569.05 1598.87,563.1 1568.64,563.1 "/>
<linearGradient id="SVGID_00000144321352558265860210000004817718964546582705_" gradientUnits="userSpaceOnUse" x1="1625.9301" y1="611.3019" x2="1625.9301" y2="563.0986">
	<stop  offset="0" style="stop-color:#4D4D4D"/>
	<stop  offset="1" style="stop-color:#C1272D"/>
</linearGradient>
<rect x="1623.13" y="563.1" style="fill:url(#SVGID_00000144321352558265860210000004817718964546582705_);" width="5.6" height="48.2"/>
<linearGradient id="SVGID_00000111178579777072506310000001202039186697384356_" gradientUnits="userSpaceOnUse" x1="1672.3054" y1="612.1352" x2="1672.3054" y2="562.2653">
	<stop  offset="0" style="stop-color:#4D4D4D"/>
	<stop  offset="1" style="stop-color:#C1272D"/>
</linearGradient>
<path style="fill:url(#SVGID_00000111178579777072506310000001202039186697384356_);" d="M1662.6,572.89
	c1.29-1.52,2.87-2.69,4.71-3.47c1.87-0.79,3.99-1.2,6.3-1.2c1.62,0,3.15,0.23,4.55,0.69c1.4,0.46,2.64,1.09,3.71,1.88
	c1.05,0.78,1.94,1.71,2.64,2.76c0.69,1.03,1.16,2.16,1.41,3.34l0.22,1.02h5.77l-0.32-1.59c-0.42-2.07-1.2-4-2.3-5.72
	c-1.09-1.71-2.46-3.21-4.05-4.45c-1.58-1.22-3.39-2.19-5.38-2.87c-1.98-0.68-4.09-1.02-6.27-1.02c-3.15,0-6.05,0.59-8.61,1.75
	c-2.57,1.17-4.8,2.86-6.62,5.04c-1.81,2.16-3.22,4.8-4.18,7.84c-0.95,3.01-1.44,6.42-1.44,10.16c0,3.76,0.48,7.21,1.43,10.26
	c0.96,3.08,2.36,5.75,4.16,7.92c1.81,2.19,4.03,3.91,6.6,5.1c2.56,1.19,5.47,1.8,8.66,1.8c2.33,0,4.53-0.33,6.54-0.97
	c2.03-0.65,3.86-1.62,5.44-2.87c1.58-1.26,2.91-2.84,3.96-4.68c1.04-1.85,1.74-3.96,2.08-6.28l0.22-1.51h-5.72l-0.18,1.08
	c-0.52,3.06-1.81,5.3-3.95,6.87c-2.18,1.6-5.03,2.41-8.46,2.41c-2.28,0-4.37-0.41-6.2-1.23c-1.81-0.81-3.39-2.01-4.68-3.57
	c-1.3-1.58-2.33-3.57-3.04-5.93c-0.73-2.4-1.1-5.22-1.1-8.4c0-3.18,0.37-5.99,1.09-8.36C1660.28,576.37,1661.3,574.42,1662.6,572.89
	z"/>
<linearGradient id="SVGID_00000111886715690873915050000004715984276184616125_" gradientUnits="userSpaceOnUse" x1="1730.6638" y1="611.3019" x2="1730.6638" y2="563.0571">
	<stop  offset="0" style="stop-color:#4D4D4D"/>
	<stop  offset="1" style="stop-color:#C1272D"/>
</linearGradient>
<path style="fill:url(#SVGID_00000111886715690873915050000004715984276184616125_);" d="M1733.19,563.06h-6.1l-0.3,0.84
	c-1.41,3.91-2.8,7.75-4.17,11.53l-4.09,11.26c-1.36,3.73-2.72,7.49-4.09,11.26c-1.37,3.78-2.76,7.64-4.17,11.58l-0.64,1.78h5.98
	l2.84-8.21c0.78-2.25,1.51-4.4,2.18-6.45h19.38l5.25,14.65h6.45L1733.19,563.06z M1722.39,591.4l7.65-20.55l8.06,20.55H1722.39z"/>
</svg>
