<svg width="22" height="14" viewBox="0 0 22 14" fill="none" xmlns="http://www.w3.org/2000/svg">
<g id="Behance/Default">
<g id="Behance">
<path d="M6.39932 0C7.03321 0 7.61881 0.0489297 8.15611 0.195719C8.69341 0.293578 9.13412 0.495413 9.52653 0.740061C9.91894 0.984709 10.2087 1.33333 10.4079 1.77982C10.6011 2.2263 10.7038 2.77064 10.7038 3.36391C10.7038 4.05505 10.5589 4.64832 10.2148 5.0948C9.91894 5.54128 9.43598 5.93884 8.84434 6.23241C9.67746 6.47706 10.3114 6.92355 10.6977 7.51682C11.0841 8.11009 11.3316 8.85015 11.3316 9.69419C11.3316 10.3853 11.1867 10.9786 10.9392 11.474C10.6977 11.9694 10.3053 12.4159 9.86461 12.7095C9.4239 13.0092 8.8866 13.2538 8.301 13.4006C7.7154 13.5474 7.12981 13.6453 6.54421 13.6453L0 13.6575V0H6.39932ZM6.00691 5.54128C6.54421 5.54128 6.98492 5.39449 7.32299 5.14373C7.66107 4.89297 7.812 4.4526 7.812 3.90826C7.812 3.60856 7.7637 3.31498 7.66711 3.11927C7.57051 2.92355 7.42562 2.77064 7.2264 2.62385C7.03321 2.52599 6.83399 2.42813 6.5925 2.3792C6.35102 2.33027 6.1035 2.33027 5.81372 2.33027H2.98232V5.5474C2.98232 5.54128 6.00691 5.54128 6.00691 5.54128ZM6.1518 11.3823C6.44761 11.3823 6.73739 11.3333 6.98492 11.2844C7.2264 11.2355 7.47392 11.1376 7.66711 10.9847C7.86029 10.8318 8.01122 10.685 8.15611 10.4404C8.25271 10.1957 8.3493 9.89602 8.3493 9.5474C8.3493 8.85627 8.15611 8.36085 7.7637 8.01223C7.37129 7.71254 6.83399 7.56575 6.20009 7.56575H2.98232V11.3761H6.1518V11.3823Z" fill="#F5EDED"/>
<path d="M15.5817 11.3333C15.9741 11.7309 16.5597 11.9266 17.3385 11.9266C17.8758 11.9266 18.3648 11.7798 18.7572 11.5291C19.1497 11.2294 19.3911 10.9358 19.4877 10.6361H21.8784C21.486 11.8226 20.9004 12.6667 20.1216 13.211C19.3428 13.7064 18.4131 14 17.2902 14C16.5114 14 15.8232 13.8532 15.1893 13.6024C14.5554 13.3578 14.0664 13.0092 13.6257 12.5138C13.185 12.0673 12.8469 11.5229 12.6477 10.8807C12.4062 10.2385 12.3036 9.5474 12.3036 8.75229C12.3036 8.01223 12.4002 7.31498 12.6477 6.67278C12.8952 6.03058 13.2333 5.48624 13.674 4.99083C14.1147 4.54434 14.652 4.14679 15.2376 3.90214C15.8715 3.65749 16.5054 3.50459 17.2902 3.50459C18.1234 3.50459 18.8538 3.65138 19.4877 4C20.1216 4.34862 20.6106 4.74006 21.003 5.33333C21.3955 5.87768 21.6852 6.51988 21.8845 7.21101C21.9811 7.90214 22.0293 8.59939 21.9811 9.38838H14.8995C14.8995 10.1957 15.1893 10.9358 15.5817 11.3333ZM18.6607 6.13456C18.3165 5.78593 17.7792 5.59022 17.1453 5.59022C16.7046 5.59022 16.3666 5.68807 16.0707 5.83486C15.7749 5.98165 15.5817 6.18349 15.3885 6.37921C15.1954 6.57492 15.0927 6.82569 15.0444 7.07034C14.9961 7.31499 14.9478 7.51682 14.9478 7.71254H19.3428C19.2462 6.97859 18.9987 6.48318 18.6607 6.13456ZM14.3622 0.941897H19.8318V2.27523H14.3622V0.941897Z" fill="#F5EDED"/>
</g>
</g>
</svg>
