<svg width="39" height="25" viewBox="0 0 39 25" fill="none" xmlns="http://www.w3.org/2000/svg">
<g id="Behance">
<g id="Behance_2">
<path d="M11.1795 0.576172C12.2704 0.576172 13.2782 0.658304 14.2028 0.9047C15.1275 1.06896 15.886 1.40776 16.5613 1.81842C17.2366 2.22908 17.7353 2.81427 18.0782 3.56372C18.4106 4.31317 18.5872 5.22689 18.5872 6.22274C18.5872 7.38285 18.3379 8.3787 17.7457 9.12816C17.2366 9.87761 16.4054 10.5449 15.3873 11.0377C16.821 11.4484 17.9119 12.1978 18.5769 13.1937C19.2418 14.1895 19.6678 15.4318 19.6678 16.8486C19.6678 18.0087 19.4184 19.0045 18.9924 19.8361C18.5769 20.6677 17.9015 21.4171 17.1431 21.9099C16.3847 22.413 15.46 22.8237 14.4522 23.0701C13.4444 23.3164 12.4366 23.4807 11.4288 23.4807L0.166504 23.5012V0.576172H11.1795ZM10.5041 9.87761C11.4288 9.87761 12.1873 9.63122 12.7691 9.21029C13.3509 8.78936 13.6106 8.05018 13.6106 7.13646C13.6106 6.6334 13.5275 6.14061 13.3613 5.81208C13.1951 5.48355 12.9457 5.22689 12.6028 4.9805C12.2704 4.81623 11.9275 4.65197 11.5119 4.56984C11.0964 4.4877 10.6704 4.4877 10.1717 4.4877H5.29896V9.88788C5.29896 9.87761 10.5041 9.87761 10.5041 9.87761ZM10.7535 19.6821C11.2626 19.6821 11.7613 19.6 12.1873 19.5178C12.6028 19.4357 13.0288 19.2715 13.3613 19.0148C13.6938 18.7581 13.9535 18.5117 14.2028 18.1011C14.3691 17.6904 14.5353 17.1874 14.5353 16.6022C14.5353 15.442 14.2028 14.6105 13.5275 14.0253C12.8522 13.5222 11.9275 13.2758 10.8366 13.2758H5.29896V19.6718H10.7535V19.6821Z" fill="#3E3636"/>
<path d="M26.982 19.6C27.6574 20.2673 28.6652 20.5958 30.0054 20.5958C30.9301 20.5958 31.7716 20.3494 32.447 19.9285C33.1223 19.4255 33.5379 18.9327 33.7041 18.4296H37.8184C37.1431 20.4213 36.1353 21.8381 34.795 22.7518C33.4548 23.5834 31.8548 24.0762 29.9223 24.0762C28.582 24.0762 27.3976 23.8298 26.3067 23.4089C25.2158 22.9982 24.3743 22.413 23.6158 21.5814C22.8574 20.832 22.2756 19.9182 21.9327 18.8403C21.5171 17.7623 21.3405 16.6022 21.3405 15.2675C21.3405 14.0253 21.5067 12.8549 21.9327 11.7769C22.3587 10.6989 22.9405 9.78522 23.6989 8.95363C24.4574 8.20418 25.382 7.53686 26.3898 7.1262C27.4807 6.71554 28.5716 6.45887 29.9223 6.45887C31.3561 6.45887 32.6132 6.70527 33.7041 7.29046C34.795 7.87565 35.6366 8.5327 36.3119 9.52855C36.9872 10.4423 37.4859 11.5203 37.8288 12.6804C37.995 13.8405 38.0781 15.0109 37.995 16.3352H25.808C25.808 17.6904 26.3067 18.9327 26.982 19.6ZM32.2807 10.8735C31.6885 10.2883 30.7638 9.95975 29.6729 9.95975C28.9145 9.95975 28.3327 10.124 27.8236 10.3704C27.3145 10.6168 26.982 10.9556 26.6496 11.2841C26.3171 11.6127 26.1405 12.0336 26.0574 12.4442C25.9742 12.8549 25.8911 13.1937 25.8911 13.5222H33.4548C33.2885 12.2902 32.8625 11.4587 32.2807 10.8735ZM24.8833 2.15721H34.2963V4.39531H24.8833V2.15721Z" fill="#3E3636"/>
</g>
</g>
</svg>
