<svg width="18" height="19" viewBox="0 0 18 19" fill="none" xmlns="http://www.w3.org/2000/svg">
<g id="bi:plus">
<path id="Vector" d="M9 5C9.14918 5 9.29226 5.05926 9.39775 5.16475C9.50324 5.27024 9.5625 5.41332 9.5625 5.5625V8.9375H12.9375C13.0867 8.9375 13.2298 8.99676 13.3352 9.10225C13.4407 9.20774 13.5 9.35082 13.5 9.5C13.5 9.64918 13.4407 9.79226 13.3352 9.89775C13.2298 10.0032 13.0867 10.0625 12.9375 10.0625H9.5625V13.4375C9.5625 13.5867 9.50324 13.7298 9.39775 13.8352C9.29226 13.9407 9.14918 14 9 14C8.85082 14 8.70774 13.9407 8.60225 13.8352C8.49676 13.7298 8.4375 13.5867 8.4375 13.4375V10.0625H5.0625C4.91332 10.0625 4.77024 10.0032 4.66475 9.89775C4.55926 9.79226 4.5 9.64918 4.5 9.5C4.5 9.35082 4.55926 9.20774 4.66475 9.10225C4.77024 8.99676 4.91332 8.9375 5.0625 8.9375H8.4375V5.5625C8.4375 5.41332 8.49676 5.27024 8.60225 5.16475C8.70774 5.05926 8.85082 5 9 5Z" fill="#F5EDED"/>
</g>
</svg>
