<svg width="24" height="25" viewBox="0 0 24 25" fill="none" xmlns="http://www.w3.org/2000/svg">
<g id="Instagram">
<path id="Instagram_2" d="M11.7511 0.576172C8.55996 0.576172 8.15948 0.590125 6.90614 0.647162C5.65524 0.704443 4.80139 0.902479 4.05428 1.19305C3.28147 1.49316 2.62591 1.89462 1.9728 2.54797C1.3192 3.20107 0.917733 3.85662 0.616636 4.62919C0.325331 5.37654 0.127048 6.23062 0.0707454 7.48101C0.0146875 8.73434 0 9.13507 0 12.3262C0 15.5173 0.0141983 15.9165 0.0709905 17.1699C0.128517 18.4208 0.326556 19.2746 0.616882 20.0217C0.917244 20.7945 1.31871 21.45 1.97206 22.1032C2.62493 22.7567 3.28049 23.1592 4.05281 23.4593C4.80041 23.7499 5.6545 23.9479 6.90516 24.0052C8.1585 24.0622 8.55874 24.0762 11.7496 24.0762C14.941 24.0762 15.3403 24.0622 16.5936 24.0052C17.8445 23.9479 18.6993 23.7499 19.4469 23.4593C20.2195 23.1592 20.8741 22.7567 21.527 22.1032C22.1806 21.45 22.582 20.7945 22.8831 20.0219C23.172 19.2746 23.3703 18.4205 23.429 17.1701C23.4853 15.9168 23.5 15.5173 23.5 12.3262C23.5 9.13507 23.4853 8.73459 23.429 7.48126C23.3703 6.23037 23.172 5.37654 22.8831 4.62943C22.582 3.85662 22.1806 3.20107 21.527 2.54797C20.8734 1.89438 20.2198 1.49292 19.4462 1.19305C18.6971 0.902479 17.8428 0.704443 16.5919 0.647162C15.3386 0.590125 14.9395 0.576172 11.7474 0.576172H11.7511ZM10.697 2.69362C11.0099 2.69313 11.3589 2.69362 11.7511 2.69362C14.8884 2.69362 15.2602 2.70488 16.4991 2.76118C17.6448 2.81357 18.2665 3.00499 18.6807 3.16582C19.2291 3.37879 19.62 3.63337 20.031 4.04462C20.4423 4.45587 20.6969 4.84754 20.9103 5.39587C21.0712 5.80957 21.2628 6.43134 21.315 7.57697C21.3713 8.81561 21.3835 9.1877 21.3835 12.3235C21.3835 15.4593 21.3713 15.8313 21.315 17.07C21.2626 18.2156 21.0712 18.8374 20.9103 19.2511C20.6974 19.7994 20.4423 20.1899 20.031 20.6009C19.6198 21.0121 19.2293 21.2667 18.6807 21.4797C18.267 21.6412 17.6448 21.8322 16.4991 21.8846C15.2605 21.9409 14.8884 21.9531 11.7511 21.9531C8.61357 21.9531 8.24173 21.9409 7.00307 21.8846C5.85744 21.8317 5.23566 21.6402 4.82122 21.4794C4.27288 21.2665 3.88121 21.0119 3.46996 20.6006C3.0587 20.1894 2.80412 19.7987 2.59066 19.2501C2.42983 18.8364 2.23815 18.2146 2.18601 17.069C2.12971 15.8304 2.11845 15.4583 2.11845 12.3205C2.11845 9.1828 2.12971 8.81268 2.18601 7.57403C2.2384 6.42841 2.42983 5.80664 2.59066 5.39245C2.80363 4.84411 3.0587 4.45245 3.46996 4.0412C3.88121 3.62995 4.27288 3.37536 4.82122 3.16191C5.23541 3.00034 5.85744 2.80941 7.00307 2.75678C8.08702 2.70782 8.50709 2.69313 10.697 2.69068V2.69362ZM18.0232 4.64461C17.2448 4.64461 16.6132 5.27544 16.6132 6.05412C16.6132 6.83256 17.2448 7.46412 18.0232 7.46412C18.8017 7.46412 19.4332 6.83256 19.4332 6.05412C19.4332 5.27568 18.8017 4.64412 18.0232 4.64412V4.64461ZM11.7511 6.29206C8.41872 6.29206 5.71692 8.99382 5.71692 12.3262C5.71692 15.6585 8.41872 18.3591 11.7511 18.3591C15.0835 18.3591 17.7843 15.6585 17.7843 12.3262C17.7843 8.99382 15.0832 6.29206 11.7509 6.29206H11.7511ZM11.7511 8.40951C13.9141 8.40951 15.6678 10.1629 15.6678 12.3262C15.6678 14.4892 13.9141 16.2428 11.7511 16.2428C9.58785 16.2428 7.83439 14.4892 7.83439 12.3262C7.83439 10.1629 9.58785 8.40951 11.7511 8.40951Z" fill="#3E3636"/>
</g>
</svg>
