<svg width="25" height="25" viewBox="0 0 25 25" fill="none" xmlns="http://www.w3.org/2000/svg">
<g id="Linkedin">
<path id="Linkedin_2" d="M0.611328 2.25956C0.611328 1.3301 1.38391 0.576172 2.33698 0.576172H22.3857C23.3387 0.576172 24.1113 1.3301 24.1113 2.25957V22.3928C24.1113 23.3226 23.3387 24.0762 22.3857 24.0762L2.33698 24.0762C1.38391 24.0762 0.611328 23.3226 0.611328 22.3928V2.25956ZM7.87192 20.2481V9.63654H4.34483V20.2481H7.87192ZM6.10836 8.18771C7.33832 8.18771 8.10388 7.37286 8.10388 6.35453C8.08095 5.31328 7.33833 4.52105 6.13169 4.52105C4.92518 4.52105 4.13633 5.31328 4.13633 6.35453C4.13633 7.37286 4.90172 8.18771 6.08537 8.18771H6.10836ZM13.3181 20.2481V14.3222C13.3181 14.005 13.341 13.6882 13.4341 13.4615C13.6891 12.8278 14.2695 12.1715 15.2438 12.1715C16.5201 12.1715 17.0306 13.1446 17.0306 14.5712V20.2481H20.5574V14.1636C20.5574 10.9042 18.8173 9.38753 16.4968 9.38753C14.6258 9.38753 13.7869 10.4159 13.3182 11.1389V11.1755H13.2946C13.3024 11.1634 13.3102 11.1512 13.3182 11.1389V9.63654H9.79111C9.8374 10.6323 9.79111 20.2481 9.79111 20.2481H13.3181Z" fill="#3E3636"/>
</g>
</svg>
