<svg width="14" height="14" viewBox="0 0 14 14" fill="none" xmlns="http://www.w3.org/2000/svg">
<g id="Property 1=Default">
<path id="Linkedin" d="M0 1.00287C0 0.449149 0.460261 0 1.02805 0H12.9719C13.5397 0 14 0.449151 14 1.00287V12.9971C14 13.551 13.5397 14 12.9719 14L1.02805 14C0.460261 14 0 13.551 0 12.9971V1.00287ZM4.32546 11.7194V5.39767H2.22421V11.7194H4.32546ZM3.27483 4.53453C4.00757 4.53453 4.46365 4.04909 4.46365 3.44243C4.44999 2.82211 4.00757 2.35014 3.28873 2.35014C2.56995 2.35014 2.1 2.82211 2.1 3.44243C2.1 4.04909 2.55598 4.53453 3.26113 4.53453H3.27483ZM7.56997 11.7194V8.1891C7.56997 8.00016 7.58363 7.81141 7.63911 7.67634C7.79101 7.29884 8.13675 6.90787 8.71723 6.90787C9.47757 6.90787 9.78172 7.48759 9.78172 8.33744V11.7194H11.8828V8.09463C11.8828 6.15286 10.8461 5.24932 9.46369 5.24932C8.34905 5.24932 7.84928 5.86195 7.57003 6.29271V6.31449H7.556C7.56061 6.30728 7.56529 6.30002 7.57003 6.29271V5.39767H5.46881C5.49638 5.99086 5.46881 11.7194 5.46881 11.7194H7.56997Z" fill="#F5EDED"/>
</g>
</svg>
