<svg width="63" height="63" viewBox="0 0 63 63" fill="none" xmlns="http://www.w3.org/2000/svg">
<g id="Mosca">
<circle id="Ellipse 7" cx="31.5" cy="31.5" r="31.5" fill="#D9D9D9"/>
<path id="Vector" d="M46.4292 16.5617C44.6049 14.7281 42.4318 13.2743 40.0368 12.285C37.6418 11.2958 35.0728 10.7909 32.4797 10.7999C21.6146 10.7999 12.7593 19.6109 12.7593 30.4217C12.7593 33.8867 13.6747 37.2526 15.386 40.2226L12.6001 50.3998L23.0473 47.6674C25.9328 49.2316 29.1764 50.0632 32.4797 50.0632C43.3448 50.0632 52.2001 41.2522 52.2001 30.4415C52.2001 25.1945 50.1504 20.2643 46.4292 16.5617ZM32.4797 46.7368C29.5346 46.7368 26.6491 45.9448 24.1219 44.4598L23.5249 44.1034L17.3163 45.727L18.9679 39.7078L18.5699 39.094C16.9337 36.4942 16.0649 33.4892 16.0626 30.4217C16.0626 21.4325 23.4254 14.1065 32.4598 14.1065C36.8377 14.1065 40.9569 15.8093 44.0413 18.8981C45.5686 20.4107 46.7789 22.21 47.6021 24.1915C48.4253 26.173 48.8451 28.2973 48.8371 30.4415C48.8769 39.4306 41.5141 46.7368 32.4797 46.7368ZM41.4743 34.5401C40.9768 34.3025 38.549 33.1145 38.1113 32.9363C37.6536 32.7779 37.3352 32.6987 36.9969 33.1739C36.6586 33.6689 35.7233 34.7777 35.4447 35.0945C35.1661 35.4311 34.8676 35.4706 34.3701 35.2133C33.8727 34.9757 32.2807 34.4411 30.4101 32.7779C28.9376 31.4711 27.9625 29.8673 27.664 29.3723C27.3854 28.8773 27.6242 28.6199 27.8829 28.3625C28.1018 28.1447 28.3804 27.7883 28.6192 27.5111C28.858 27.2339 28.9575 27.0161 29.1167 26.6993C29.2759 26.3627 29.1963 26.0855 29.0769 25.8479C28.9575 25.6103 27.9625 23.1947 27.5645 22.2047C27.1665 21.2543 26.7486 21.3731 26.4501 21.3533H25.495C25.1567 21.3533 24.6393 21.4721 24.1816 21.9671C23.7438 22.4621 22.4702 23.6501 22.4702 26.0657C22.4702 28.4813 24.2413 30.8177 24.4801 31.1345C24.7189 31.4711 27.9625 36.421 32.8976 38.5396C34.0717 39.0544 34.987 39.3514 35.7034 39.5692C36.8775 39.9454 37.9521 39.886 38.8077 39.7672C39.7629 39.6286 41.733 38.5792 42.1309 37.4308C42.5488 36.2824 42.5488 35.3123 42.4095 35.0945C42.2702 34.8767 41.9718 34.7777 41.4743 34.5401Z" fill="#44B442"/>
</g>
</svg>
