<svg width="14" height="15" viewBox="0 0 14 15" fill="none" xmlns="http://www.w3.org/2000/svg">
<g id="Property 1=Default">
<path id="Tiktok" d="M8 9.55536e-06L9.98058 0C10.1236 0.670323 10.5206 1.51599 11.215 2.35495C11.8955 3.177 12.7971 3.75001 14 3.75001V5.62501C12.2466 5.62501 10.9291 4.86229 10 3.91068V10.3125C10 12.9013 7.76142 15 5 15C2.23858 15 0 12.9013 0 10.3125C0 7.72367 2.23858 5.62501 5 5.62501V7.50001C3.34315 7.50001 2 8.7592 2 10.3125C2 11.8658 3.34315 13.125 5 13.125C6.65685 13.125 8 11.8658 8 10.3125V9.55536e-06Z" fill="#F5EDED"/>
</g>
</svg>
