<svg width="23" height="25" viewBox="0 0 23 25" fill="none" xmlns="http://www.w3.org/2000/svg">
<g id="Tiktok">
<path id="Tiktok_2" d="M13.0712 0.576187L16.2111 0.576172C16.4378 1.62634 17.0672 2.95122 18.1681 4.26559C19.2468 5.55347 20.6762 6.45118 22.5831 6.45118V9.38868C19.8034 9.38868 17.7147 8.19376 16.2418 6.7029V16.7324C16.2418 20.7883 12.693 24.0762 8.31526 24.0762C3.93753 24.0762 0.388672 20.7883 0.388672 16.7324C0.388672 12.6766 3.93753 9.38868 8.31526 9.38868V12.3262C5.68862 12.3262 3.55931 14.2989 3.55931 16.7324C3.55931 19.1659 5.68862 21.1387 8.31526 21.1387C10.9419 21.1387 13.0712 19.1659 13.0712 16.7324V0.576187Z" fill="#3E3636"/>
</g>
</svg>
