<svg width="33" height="25" viewBox="0 0 33 25" fill="none" xmlns="http://www.w3.org/2000/svg">
<g id="Youtube">
<path id="Youtube_2" d="M16.5093 0.576172C16.5209 0.576197 16.5334 0.576227 16.5468 0.576261L16.6912 0.576722C18.3676 0.583034 26.8642 0.646157 29.155 1.27739C30.5594 1.66344 31.6652 2.80116 32.0405 4.24534C32.2472 5.03878 32.3912 6.09338 32.4915 7.17798L32.511 7.39524C32.5268 7.5765 32.5414 7.75817 32.5549 7.93918L32.5706 8.15599C32.7047 10.0672 32.7203 11.8557 32.7222 12.247L32.7224 12.2998C32.7224 12.3041 32.7224 12.3111 32.7224 12.3111V12.3408C32.7224 12.3408 32.7224 12.3478 32.7224 12.3522L32.7222 12.405C32.7203 12.811 32.7035 14.7218 32.5549 16.7129L32.5382 16.9303L32.5204 17.148C32.4193 18.3451 32.2678 19.5339 32.0405 20.4066C31.6652 21.8508 30.5594 22.9888 29.155 23.3745C26.7878 24.0271 17.7943 24.0727 16.5468 24.0759L16.4508 24.0761C16.4429 24.0761 16.4359 24.0762 16.43 24.0762L16.3908 24.0762C16.3908 24.0762 16.3818 24.0762 16.3758 24.0762L16.259 24.0759C15.6286 24.0743 13.0198 24.0619 10.2878 23.9657L9.93849 23.953C9.88021 23.9508 9.82191 23.9485 9.76361 23.9462L9.41391 23.9321L9.06502 23.9169C6.80171 23.8151 4.64376 23.6482 3.65107 23.3745C2.24673 22.9888 1.14089 21.8508 0.765559 20.4066C0.538175 19.5339 0.386586 18.3451 0.285527 17.148L0.267704 16.9303L0.25096 16.7129C0.10773 14.7942 0.0869388 12.9501 0.0839207 12.4552L0.0835601 12.3843C0.0835348 12.3779 0.0835137 12.3721 0.0834961 12.3667V12.2852C0.0835137 12.2799 0.0835348 12.274 0.0835601 12.2676L0.0839207 12.1968C0.0866541 11.7485 0.103966 10.1938 0.213605 8.47913L0.227796 8.26404C0.230243 8.22807 0.232732 8.19206 0.235263 8.15599L0.25096 7.93918C0.264473 7.75817 0.279075 7.5765 0.294854 7.39524L0.31436 7.17798C0.414774 6.09338 0.558847 5.03878 0.765559 4.24534C1.14089 2.80116 2.24673 1.66344 3.65107 1.27739C4.64376 1.00385 6.80171 0.836998 9.06502 0.735217L9.41391 0.720066L9.76361 0.705908C9.82191 0.70363 9.88021 0.701391 9.93849 0.699191L10.2878 0.68646C12.8454 0.596472 15.295 0.579808 16.1146 0.576722L16.259 0.576261C16.2724 0.576227 16.2849 0.576197 16.2965 0.576172H16.5093ZM13.1391 7.29011V17.3618L21.6186 12.3262L13.1391 7.29011Z" fill="#3E3636"/>
</g>
</svg>
