<svg width="25" height="19" viewBox="0 0 25 19" fill="none" xmlns="http://www.w3.org/2000/svg">
<g id="Youtube">
<path id="Youtube_2" d="M12.5815 0.5C12.5903 0.500019 12.5999 0.500042 12.6102 0.500068L12.7208 0.500421C14.0049 0.505256 20.5129 0.553606 22.2675 1.0371C23.3432 1.3328 24.1902 2.20424 24.4777 3.31043C24.636 3.91817 24.7463 4.72594 24.8232 5.55671L24.8381 5.72311C24.8502 5.86195 24.8614 6.00111 24.8717 6.13975L24.8837 6.30582C24.9865 7.76972 24.9984 9.13962 24.9998 9.43934L25 9.47977C25 9.48308 25 9.48849 25 9.48849V9.51119C25 9.51119 25 9.5166 25 9.51991L24.9998 9.56034C24.9984 9.87138 24.9855 11.3349 24.8717 12.86L24.8589 13.0266L24.8453 13.1933C24.7679 14.1103 24.6518 15.0208 24.4777 15.6893C24.1902 16.7954 23.3432 17.6671 22.2675 17.9626C20.4544 18.4624 13.5657 18.4974 12.6102 18.4998L12.5366 18.5C12.5306 18.5 12.5253 18.5 12.5207 18.5L12.4907 18.5C12.4907 18.5 12.4838 18.5 12.4792 18.5L12.3897 18.4998C11.9069 18.4986 9.90866 18.489 7.81605 18.4154L7.54851 18.4056C7.50387 18.4039 7.45921 18.4022 7.41455 18.4005L7.1467 18.3896L6.87947 18.378C5.14586 18.3 3.49297 18.1722 2.73261 17.9626C1.65695 17.6671 0.809919 16.7954 0.522431 15.6893C0.348265 15.0208 0.232154 14.1103 0.154747 13.1933L0.141095 13.0266L0.12827 12.86C0.0185624 11.3904 0.002637 9.97791 0.000325249 9.59879L4.90028e-05 9.54453C2.96171e-05 9.53964 1.34623e-05 9.53514 0 9.53104V9.46864C1.34623e-05 9.46454 2.96171e-05 9.46004 4.90028e-05 9.45515L0.000325249 9.40089C0.00241891 9.05756 0.0156787 7.86666 0.0996577 6.55333L0.110528 6.38858C0.112402 6.36103 0.114308 6.33344 0.116247 6.30582L0.12827 6.13975C0.13862 6.00111 0.149805 5.86195 0.161891 5.72311L0.176832 5.55671C0.253745 4.72594 0.364098 3.91817 0.522431 3.31043C0.809919 2.20424 1.65695 1.3328 2.73261 1.0371C3.49297 0.827586 5.14586 0.699782 6.87947 0.621822L7.1467 0.610217L7.41455 0.599373C7.45921 0.597627 7.50387 0.595912 7.54851 0.594228L7.81605 0.584476C9.77509 0.515549 11.6514 0.502785 12.2791 0.500421L12.3897 0.500068C12.4 0.500042 12.4096 0.500019 12.4185 0.5H12.5815ZM10 5.64259V13.3571L16.495 9.50005L10 5.64259Z" fill="#F5EDED"/>
</g>
</svg>
